<?xml version="1.0" encoding="UTF-8"?>
<svg id="Layer_2" data-name="Layer 2" xmlns="http://www.w3.org/2000/svg" xmlns:xlink="http://www.w3.org/1999/xlink" viewBox="0 0 1550.6146988 452.39084">
  <defs>
    <style>
      .cls-1 {
        clip-path: url(#clippath);
      }

      .cls-2 {
        fill: none;
      }

      .cls-2, .cls-3, .cls-4, .cls-5 {
        stroke-width: 0px;
      }

      .cls-3 {
        fill: url(#linear-gradient);
      }

      .cls-4 {
        fill: url(#linear-gradient-2);
      }
    </style>
    <linearGradient id="linear-gradient" x1="221.8721384" y1="467.2474089" x2="221.8721384" y2="-20.1390199" gradientUnits="userSpaceOnUse">
      <stop offset="0" stop-color="#5600e7"/>
      <stop offset=".501269" stop-color="#ea1c24"/>
      <stop offset="1" stop-color="#f9de06"/>
    </linearGradient>
    <clipPath id="clippath">
      <circle class="cls-2" cx="221.8721384" cy="211.1602357" r="211.1602357"/>
    </clipPath>
    <linearGradient id="linear-gradient-2" x1="187.5725258" y1="173.452266" x2="187.5725258" y2="530.1046427" gradientUnits="userSpaceOnUse">
      <stop offset="0" stop-color="#fff"/>
      <stop offset=".1075411" stop-color="#fff" stop-opacity=".9854792"/>
      <stop offset=".2079542" stop-color="#fff" stop-opacity=".9411858"/>
      <stop offset=".3055147" stop-color="#fff" stop-opacity=".8669988"/>
      <stop offset=".4013922" stop-color="#fff" stop-opacity=".762702"/>
      <stop offset=".4960325" stop-color="#fff" stop-opacity=".6281926"/>
      <stop offset=".5897561" stop-color="#fff" stop-opacity=".463276"/>
      <stop offset=".6827174" stop-color="#fff" stop-opacity=".2678646"/>
      <stop offset=".7728756" stop-color="#fff" stop-opacity=".0475186"/>
      <stop offset=".7908195" stop-color="#fff" stop-opacity="0"/>
    </linearGradient>
  </defs>
  <g id="Logo">
    <g>
      <g>
        <circle class="cls-3" cx="221.8721384" cy="211.1602357" r="210.3295465"/>
        <g class="cls-1">
          <path class="cls-4" d="M219.243823,138.1711385c-5.0497279,2.7086247-10.2719068,7.5291929-12.5870561,12.1209012l-19.7310269,43.9172598c-2.2391715,4.9357515-8.2539443,8.7299756-15.1586317,5.1039041l-43.9148235-22.4735044c-7.8800209-3.5897806-7.5281396-10.2759347.5573058-13.448192l72.4118284-24.3330014c5.4069332-1.921491,6.5297308-4.9862025.9818974-8.5061447-17.7509738-11.2626261-36.6641017-16.0680662-88.8187274-6.7134575-36.7384061,6.5895097-98.0473977,16.9174557-98.0473977,16.9174557,0,0-36.0457518,74.08747,3.8520774,159.0327001,46.9737693,100.0103947,147.7238708,114.3386296,147.7238708,114.3386296l163.7247523-221.4999206c7.151914-9.5079798,10.6911557-18.1594595-4.3926739-9.9311723l-95.4825644,52.5941587c-3.9568432,2.0452529-6.1537264-2.1611084-2.9669784-4.1964609,15.6356265-9.9863597,70.4181247-45.526131,91.8909473-59.3512382,20.852049-13.4254271,45.9657584-21.1101314,53.5946063-6.6153204,18.252776-55.3009085-77.5933881-67.7458646-153.6374055-26.9565968Z"/>
        </g>
      </g>
      <g>
        <polygon class="cls-5" points="586.703926 230.7583426 703.3747841 230.7583426 703.3747841 182.2500455 586.703926 182.2500455 586.703926 112.8339176 724.701628 112.8339176 724.701628 63.4887517 533.1778884 63.4887517 533.1778884 356.2111146 726.3742081 356.2111146 726.3742081 306.8671061 586.703926 306.8671061 586.703926 230.7583426"/>
        <path class="cls-5" d="M919.1573021,166.8925476c-4.276365-6.3759161-9.4000162-12.1549988-15.4722346-17.2595514-6.9715919-5.8546093-15.0543789-10.3827294-24.2541486-13.5901479-9.1997696-3.201631-19.3799375-4.8093914-30.5266135-4.8093914-19.2364081,0-36.5247522,4.8811561-51.8534575,14.6365233-15.3356502,9.7611547-27.4627245,23.2795378-36.3812228,40.5620945-8.9254433,17.2895016-13.3817988,36.9437654-13.3817988,58.9627913,0,22.0259708,4.4563554,41.6802346,13.3817988,58.9627913,8.9184984,17.2883441,20.7643014,30.9444692,35.544354,40.9811077,14.7731077,10.035481,31.219953,15.0543789,49.345166,15.0543789,10.5910785,0,20.5559523-1.6725802,29.8992513-5.018898,9.336354-3.3451603,17.8369967-7.7355386,25.5088731-13.1722922,6.9808519-4.9513292,12.867871-10.632893,17.772177-16.9730715v30.9822325h52.2713131v-220.3777729h-51.8534575v31.0592059ZM891.5579933,306.0302373c-9.1997696,5.8546093-19.7977931,8.781914-31.781338,8.781914-11.9893324,0-22.5155912-2.9273047-31.5718315-8.781914-9.0631852-5.8546093-16.0995968-14.009161-21.1184948-24.4636551-5.0177405-10.4544941-7.5271895-22.5086462-7.5271895-36.1717163,0-13.3817988,2.509449-25.2276018,7.5271895-35.544354,5.018898-10.3109648,12.0553096-18.3995393,21.1184948-24.2541486,9.0562403-5.8546093,19.5824991-8.781914,31.5718315-8.781914,11.9835449,0,22.5815684,2.9273047,31.781338,8.781914s16.3739231,13.9431838,21.5363505,24.2541486c5.1543249,10.3167522,7.7355386,22.1625552,7.7355386,35.544354,0,13.66307-2.5812137,25.7172221-7.7355386,36.1717163-5.1624273,10.4544941-12.3365809,18.6090458-21.5363505,24.4636551Z"/>
        <path class="cls-5" d="M1173.7911372,163.3634903c-2.5511188-3.0083293-5.4376218-5.9205865-8.7483466-8.7127536-5.2990117-4.4563554-11.2253857-8.5006427-17.772177-12.1270743-6.5537362-3.6194866-13.7348347-6.4090494-21.5363505-8.3629008-7.8084607-1.9469065-15.8900903-2.9273047-24.2541486-2.9273047-20.0721194,0-38.1255677,4.9529208-54.1533999,14.8448724-16.0347771,9.8988966-28.6445268,23.4184372-37.8442964,40.563252-9.2009271,17.1448148-13.8008119,36.7342588-13.8008119,58.7532847,0,22.0259708,4.665862,41.470728,14.009161,58.335429,9.3375115,16.8704885,22.0201834,30.1805226,38.053803,39.9358897,16.0278322,9.7611547,34.4991361,14.6353658,55.4081244,14.6353658,11.9835449,0,23.6927635-2.4365268,35.1264984-7.3176829,11.4279474-4.8742111,20.9089882-11.2184408,28.4361777-19.0269015,2.399487-2.4870225,4.4679304-5.0222258,6.272465-7.5954817v20.5594248c0,13.9362388-2.5082915,25.5736928-7.5271895,34.9169918-5.0177405,9.3375115-12.4801102,16.3091034-22.3720618,20.9089882-9.8988966,4.5998848-22.2354774,6.8998272-37.0085851,6.8998272-8.0885745,0-16.2431262-.8368688-24.4624977-2.509449-8.2263164-1.6725802-15.9630124-4.0442873-23.2089307-7.1081763-7.2528632-3.0719915-13.7996544-6.6914781-19.6542638-10.8735073l-18.3995393,38.053803c10.035481,8.082787,23.2077732,14.6365233,39.5168766,19.6542638,16.3091034,5.018898,32.6830266,7.5271895,49.1356594,7.5271895,18.118268,0,34.290787-2.4434718,48.5082971-7.3176829,14.2175101-4.8811561,26.3445844-12.1270743,36.3812228-21.7446996,10.0366385-9.6187828,17.7004123-21.2620242,22.9994241-34.9181493,5.2920668-13.6619125,7.9450451-29.4154184,7.9450451-47.2535726v-205.323394h-50.598733l-.451423,27.5301486ZM1144.343309,305.6123816c-9.6187828,5.8546093-20.6994817,8.7807565-33.2455691,8.7807565-12.5449299,0-23.5608091-2.9261472-33.034905-8.7807565-9.4810409-5.8546093-16.9364657-14.009161-22.3732193-24.4636551-5.4355961-10.4544941-8.1533942-22.2285325-8.1533942-35.3360049,0-13.3806413,2.7177981-25.2993665,8.1533942-35.7538606,5.4367536-10.4544941,12.8921784-18.6738656,22.3732193-24.6720042,9.4740959-5.9911937,20.4899751-8.990263,33.034905-8.990263,12.5460874,0,23.5550216,2.9273047,33.0360625,8.7807565,9.4740959,5.8546093,16.9364657,14.009161,22.3720618,24.4636551,5.4367536,10.4544941,8.1545517,22.5155912,8.1545517,36.1717163,0,13.3817988-2.6529784,25.2345468-7.9450451,35.5455115-5.2990117,10.3167522-12.7544365,18.3995393-22.3720618,24.2541486Z"/>
        <rect class="cls-5" x="1263.7273351" y="46.7619372" width="51.8534575" height="309.4491774"/>
        <path class="cls-5" d="M1550.5927737,239.5402566c.2743263-15.6099765-2.0256161-30.0369932-6.8998272-43.2810501-4.8811561-13.2371119-11.9175677-24.6720042-21.1173373-34.2896295-9.1997696-9.6187828-20.0732769-17.210792-32.6182069-22.791075-12.5449299-5.573338-26.0702581-8.3629008-40.5620945-8.3629008-16.4526328,0-31.5729889,2.8613274-45.3726434,8.5724074-13.7996544,5.7168674-25.6524024,13.7996544-35.544354,24.2541486-9.8988966,10.4544941-17.6355926,22.7899175-23.2089307,37.0085851-5.580283,14.2175101-8.3640583,29.971016-8.3640583,47.2535726,0,21.7446996,4.9471333,41.0528723,14.8460299,57.9164158,9.8919516,16.871646,23.691606,30.1805226,41.3989633,39.9358897,17.7004123,9.7623122,38.1186227,14.6365233,61.2627337,14.6365233,10.3109648,0,20.7643014-1.3982539,31.3623249-4.1820291,10.592236-2.7837753,20.7006392-6.618556,30.3182645-11.499712,9.6176253-4.8742111,18.1900327-10.8005851,25.7172221-17.772177l-25.5077156-35.5455115c-10.0366385,8.6453296-19.3799375,14.6365233-28.018322,17.9816836-8.6441721,3.3451603-18.125213,5.0177405-28.4361777,5.0177405-14.7788951,0-27.6710736-2.8543825-38.6811653-8.5724074-11.0158792-5.7099224-19.5165219-13.8644742-25.5077156-24.4624977-4.0315548-7.1191725-6.6723795-15.078397-7.9925024-23.8362929h162.5076569l.4178557-17.9816836ZM1414.8950142,184.3416388c9.3375115-5.2932243,20.8372236-7.9450451,34.5002936-7.9450451,8.9184984,0,17.0730501,1.8809292,24.4624977,5.6451027,7.3836601,3.763016,13.4466185,8.9254433,18.1911902,15.4722346,4.7364692,6.5537362,7.5271895,14.1526904,8.3629008,22.791075v2.0904358h-111.6548538c1.1774617-5.5973561,2.8347051-10.701764,5.0206342-15.2638855,4.7364692-9.8919516,11.7740383-17.4909057,21.1173373-22.7899175Z"/>
      </g>
    </g>
  </g>
</svg>